#Comment line ignore any data following # character 
#Hierarchical Translation and Rotation (.htr) file 
[Header]	
#Header keywords are followed by a single value 
FileType HTR		#Single word string
DataType HTRS		#Translation followed by rotation and scale data
FileVersion 1		#integer
NumSegments 64		#integer
NumFrames 3		#integer
DataFrameRate 30		#integer, data frame rate in this file
EulerRotationOrder ZYX
CalibrationUnits mm
RotationUnits Degrees
GlobalAxisofGravity Y
BoneLengthAxis Y
ScaleFactor 1.00
[SegmentNames&Hierarchy]
#CHILD	PARENT
Pinger_Root GLOBAL
Pelvis Pinger_Root
L_Hip Pelvis
R_Hip Pelvis
Rear_Leg01 Pelvis
Spine1 Pelvis
L_Leg01 L_Hip
L_Leg02 L_Leg01
L_Leg03 L_Leg02
L_Foot L_Leg03
L_Toe1_01 L_Foot
L_Toe2_01 L_Foot
L_Toe3_01 L_Foot
planeAlignerLeft L_Foot
L_Toe1_02 L_Toe1_01
L_Toe1_03 L_Toe1_02
L_Toe2_02 L_Toe2_01
L_Toe2_03 L_Toe2_02
L_Toe3_02 L_Toe3_01
L_Toe3_03 L_Toe3_02
planeLockWeightLeft planeAlignerLeft
R_Leg01 R_Hip
R_Leg02 R_Leg01
R_Leg03 R_Leg02
R_Foot R_Leg03
planeAlignerRight R_Foot
R_Toe1_01 R_Foot
R_Toe2_01 R_Foot
R_Toe3_01 R_Foot
planeLockWeightRight planeAlignerRight
R_Toe1_02 R_Toe1_01
R_Toe1_03 R_Toe1_02
R_Toe2_02 R_Toe2_01
R_Toe2_03 R_Toe2_02
R_Toe3_02 R_Toe3_01
R_Toe3_03 R_Toe3_02
Rear_Leg02 Rear_Leg01
Rear_Leg03 Rear_Leg02
Rear_Leg04 Rear_Leg03
Rear_Foot Rear_Leg04
planeAlignerCenter Rear_Foot
Rear_Toe1_01 Rear_Foot
Rear_Toe2_01 Rear_Foot
Rear_Toe3_01 Rear_Foot
planeLockWeightCenter planeAlignerCenter
Rear_Toe1_02 Rear_Toe1_01
Rear_Toe1_03 Rear_Toe1_02
Rear_Toe2_02 Rear_Toe2_01
Rear_Toe2_03 Rear_Toe2_02
Rear_Toe3_02 Rear_Toe3_01
Rear_Toe3_03 Rear_Toe3_02
Back_Bone Spine1
Head Spine1
Motor_Bone Back_Bone
Ping_Mechanism Back_Bone
BN_LookIK Head
bottomMouth Head
L_Mouth01 Head
L_mouthFront Head
mouthGun Head
R_Mouth01 Head
R_mouthFront Head
TopMouth Head
weapon_bone Head
[BasePosition]
#SegmentName Tx, Ty, Tz, Rx, Ry, Rz, BoneLength
Pinger_Root 0.000000 0.000000 0.000000 -90.000000 0.000000 0.000000 10.000000 
Pelvis 0.000000 0.000000 0.000000 0.000000 0.000000 0.000000 10.000000 
L_Hip 0.000000 0.000000 0.000000 0.000000 0.000000 0.000000 10.000000 
R_Hip 0.000000 0.000000 0.000000 0.000000 0.000000 0.000000 10.000000 
Rear_Leg01 0.000000 0.000000 0.000000 0.000000 0.000000 0.000000 10.000000 
Spine1 0.000000 0.000000 0.000000 0.000000 0.000000 0.000000 10.000000 
L_Leg01 0.000000 0.000000 0.000000 0.000000 0.000000 0.000000 10.000000 
L_Leg02 0.000000 0.000000 0.000000 0.000000 0.000000 0.000000 10.000000 
L_Leg03 0.000000 0.000000 0.000000 0.000000 0.000000 0.000000 10.000000 
L_Foot 0.000000 0.000000 0.000000 0.000000 0.000000 0.000000 10.000000 
L_Toe1_01 0.000000 0.000000 0.000000 0.000000 0.000000 0.000000 10.000000 
L_Toe2_01 0.000000 0.000000 0.000000 0.000000 0.000000 0.000000 10.000000 
L_Toe3_01 0.000000 0.000000 0.000000 0.000000 0.000000 0.000000 10.000000 
planeAlignerLeft 0.000000 0.000000 0.000000 0.000000 0.000000 0.000000 10.000000 
L_Toe1_02 0.000000 0.000000 0.000000 0.000000 0.000000 0.000000 10.000000 
L_Toe1_03 0.000000 0.000000 0.000000 0.000000 0.000000 0.000000 10.000000 
L_Toe2_02 0.000000 0.000000 0.000000 0.000000 0.000000 0.000000 10.000000 
L_Toe2_03 0.000000 0.000000 0.000000 0.000000 0.000000 0.000000 10.000000 
L_Toe3_02 0.000000 0.000000 0.000000 0.000000 0.000000 0.000000 10.000000 
L_Toe3_03 0.000000 0.000000 0.000000 0.000000 0.000000 0.000000 10.000000 
planeLockWeightLeft 0.000000 0.000000 0.000000 0.000000 0.000000 0.000000 10.000000 
R_Leg01 0.000000 0.000000 0.000000 0.000000 0.000000 0.000000 10.000000 
R_Leg02 0.000000 0.000000 0.000000 0.000000 0.000000 0.000000 10.000000 
R_Leg03 0.000000 0.000000 0.000000 0.000000 0.000000 0.000000 10.000000 
R_Foot 0.000000 0.000000 0.000000 0.000000 0.000000 0.000000 10.000000 
planeAlignerRight 0.000000 0.000000 0.000000 0.000000 0.000000 0.000000 10.000000 
R_Toe1_01 0.000000 0.000000 0.000000 0.000000 0.000000 0.000000 10.000000 
R_Toe2_01 0.000000 0.000000 0.000000 0.000000 0.000000 0.000000 10.000000 
R_Toe3_01 0.000000 0.000000 0.000000 0.000000 0.000000 0.000000 10.000000 
planeLockWeightRight 0.000000 0.000000 0.000000 0.000000 0.000000 0.000000 10.000000 
R_Toe1_02 0.000000 0.000000 0.000000 0.000000 0.000000 0.000000 10.000000 
R_Toe1_03 0.000000 0.000000 0.000000 0.000000 0.000000 0.000000 10.000000 
R_Toe2_02 0.000000 0.000000 0.000000 0.000000 0.000000 0.000000 10.000000 
R_Toe2_03 0.000000 0.000000 0.000000 0.000000 0.000000 0.000000 10.000000 
R_Toe3_02 0.000000 0.000000 0.000000 0.000000 0.000000 0.000000 10.000000 
R_Toe3_03 0.000000 0.000000 0.000000 0.000000 0.000000 0.000000 10.000000 
Rear_Leg02 0.000000 0.000000 0.000000 0.000000 0.000000 0.000000 10.000000 
Rear_Leg03 0.000000 0.000000 0.000000 0.000000 0.000000 0.000000 10.000000 
Rear_Leg04 0.000000 0.000000 0.000000 0.000000 0.000000 0.000000 10.000000 
Rear_Foot 0.000000 0.000000 0.000000 0.000000 0.000000 0.000000 10.000000 
planeAlignerCenter 0.000000 0.000000 0.000000 0.000000 0.000000 0.000000 10.000000 
Rear_Toe1_01 0.000000 0.000000 0.000000 0.000000 0.000000 0.000000 10.000000 
Rear_Toe2_01 0.000000 0.000000 0.000000 0.000000 0.000000 0.000000 10.000000 
Rear_Toe3_01 0.000000 0.000000 0.000000 0.000000 0.000000 0.000000 10.000000 
planeLockWeightCenter 0.000000 0.000000 0.000000 0.000000 0.000000 0.000000 10.000000 
Rear_Toe1_02 0.000000 0.000000 0.000000 0.000000 0.000000 0.000000 10.000000 
Rear_Toe1_03 0.000000 0.000000 0.000000 0.000000 0.000000 0.000000 10.000000 
Rear_Toe2_02 0.000000 0.000000 0.000000 0.000000 0.000000 0.000000 10.000000 
Rear_Toe2_03 0.000000 0.000000 0.000000 0.000000 0.000000 0.000000 10.000000 
Rear_Toe3_02 0.000000 0.000000 0.000000 0.000000 0.000000 0.000000 10.000000 
Rear_Toe3_03 0.000000 0.000000 0.000000 0.000000 0.000000 0.000000 10.000000 
Back_Bone 0.000000 0.000000 0.000000 0.000000 0.000000 0.000000 10.000000 
Head 0.000000 0.000000 0.000000 0.000000 0.000000 0.000000 10.000000 
Motor_Bone 0.000000 0.000000 0.000000 0.000000 0.000000 0.000000 10.000000 
Ping_Mechanism 0.000000 0.000000 0.000000 0.000000 0.000000 0.000000 10.000000 
BN_LookIK 0.000000 0.000000 0.000000 0.000000 0.000000 0.000000 10.000000 
bottomMouth 0.000000 0.000000 0.000000 0.000000 0.000000 0.000000 10.000000 
L_Mouth01 0.000000 0.000000 0.000000 0.000000 0.000000 0.000000 10.000000 
L_mouthFront 0.000000 0.000000 0.000000 0.000000 0.000000 0.000000 10.000000 
mouthGun 0.000000 0.000000 0.000000 0.000000 0.000000 0.000000 10.000000 
R_Mouth01 0.000000 0.000000 0.000000 0.000000 0.000000 0.000000 10.000000 
R_mouthFront 0.000000 0.000000 0.000000 0.000000 0.000000 0.000000 10.000000 
TopMouth 0.000000 0.000000 0.000000 0.000000 0.000000 0.000000 10.000000 
weapon_bone 0.000000 0.000000 0.000000 0.000000 0.000000 0.000000 10.000000 
#Beginning of Data. Separated by tabs
#Fr	Tx	Ty	Tz	Rx	Ry	Rz	SF
[Pinger_Root]
6 0.000000 0.000000 0.000000 -0.000075 -0.000000 -0.000020 0.000000
7 0.000000 0.000000 0.000000 -0.000075 -0.000000 -0.000020 0.000000
8 0.000000 0.000000 0.000000 -0.000075 -0.000000 -0.000020 0.000000
[Pelvis]
6 131.951385 745.673828 4487.954102 -33.532864 -80.273087 -0.447226 4551.392578
7 75.516930 772.035339 4510.409180 -33.571281 -79.414459 -4.602631 4576.628906
8 27.915718 794.270691 4535.833984 -38.518284 -79.722679 -2.227188 4604.935547
[L_Hip]
6 5.766392 125.831482 872.656799 159.754120 -51.091709 119.737877 881.701050
7 5.766392 125.831482 872.656799 159.731537 -53.375641 118.685387 881.701050
8 5.766392 125.831482 872.656799 159.782013 -55.659439 117.573936 881.701050
[R_Hip]
6 5.765438 125.836372 -872.654907 37.550270 55.108337 124.680832 881.699829
7 5.765438 125.836372 -872.654907 37.241486 56.970745 124.248848 881.699829
8 5.765438 125.836372 -872.654907 36.616173 59.308807 123.600716 881.699829
[Rear_Leg01]
6 -192.298416 -925.602966 -0.001907 -148.223831 -0.834412 -146.036560 945.367432
7 -192.298416 -925.602966 -0.001907 -150.743881 3.231159 -146.195404 945.367432
8 -192.298416 -925.602966 -0.001907 -153.156052 4.580345 -146.846786 945.367432
[Spine1]
6 290.604584 5.007505 0.000477 26.701788 -19.044754 17.097897 290.647736
7 290.604584 5.007505 0.000477 29.731762 -21.317602 16.379353 290.647736
8 290.604584 5.007505 0.000477 31.660397 -21.585495 15.690321 290.647736
[L_Leg01]
6 761.932007 -0.002384 -0.069261 27.208584 -1.350074 -41.748264 761.932068
7 761.932007 -0.002384 -0.069261 30.238823 -0.584913 -48.006138 761.932068
8 761.932007 -0.002384 -0.069261 34.112209 -0.963301 -50.224617 761.932068
[L_Leg02]
6 1441.140503 -0.000954 -0.000715 -0.194335 0.008823 -102.023354 1441.140503
7 1441.140503 -0.000954 -0.000715 -0.548346 0.066301 -98.354012 1441.140503
8 1441.140503 -0.000954 -0.000715 -0.605754 0.082603 -98.458397 1441.140503
[L_Leg03]
6 1686.963989 -0.000715 -0.000954 -0.012741 0.004468 113.764381 1686.963989
7 1686.963989 -0.000715 -0.000954 -0.011408 0.002308 112.875671 1686.963989
8 1686.963989 -0.000715 -0.000954 -0.007302 0.005022 112.554863 1686.963989
[L_Foot]
6 3041.570068 -30.715107 11.297464 -9.497308 31.870121 50.043697 3041.746094
7 3041.570068 -30.715107 11.297464 -10.770613 37.014126 49.707298 3041.746094
8 3041.570068 -30.715107 11.297464 -11.498235 41.314674 50.076591 3041.746094
[L_Toe1_01]
6 -188.216690 -224.732346 -21.137953 95.254936 -6.861701 -171.970078 293.899567
7 -188.216690 -224.732346 -21.137953 95.752304 -6.861062 -171.970154 293.899567
8 -188.216690 -224.732346 -21.137953 96.249649 -6.860420 -171.970200 293.899567
[L_Toe2_01]
6 200.746536 -219.926590 148.838394 -89.395241 -26.124172 -52.670540 332.896027
7 200.746536 -219.926590 148.838394 -89.137466 -26.047180 -52.671837 332.896027
8 200.746536 -219.926590 148.838394 -88.879852 -25.970184 -52.672741 332.896027
[L_Toe3_01]
6 188.832520 -219.859131 -191.078659 -102.257072 13.216286 -67.548424 347.140900
7 188.832520 -219.859131 -191.078659 -103.263367 12.964311 -67.488640 347.140900
8 188.832520 -219.859131 -191.078659 -104.268913 12.713391 -67.424370 347.140900
[planeAlignerLeft]
6 32.990543 -593.019531 101.087898 169.306686 -76.298271 89.968506 602.477661
7 32.990635 -593.019531 101.088043 169.306686 -76.298271 89.968506 602.477661
8 32.990719 -593.019470 101.088181 169.306686 -76.298271 89.968506 602.477661
[L_Toe1_02]
6 413.761139 0.000477 0.000000 0.001384 -25.959011 0.001384 413.761139
7 413.761139 0.000477 0.000000 0.001384 -25.948219 0.001384 413.761139
8 413.761139 0.000477 0.000000 0.001384 -25.937435 0.001384 413.761139
[L_Toe1_03]
6 464.317322 0.000358 -0.000089 0.003734 53.359097 0.003734 464.317322
7 464.317322 0.000358 -0.000089 0.003734 53.359097 0.003734 464.317322
8 464.317322 0.000358 -0.000089 0.003734 53.359097 0.003734 464.317322
[L_Toe2_02]
6 342.235809 -0.000477 0.000238 0.001188 -72.402016 0.001188 342.235809
7 342.235809 -0.000477 0.000238 0.001188 -72.402016 0.001188 342.235809
8 342.235809 -0.000477 0.000238 0.001188 -72.402016 0.001188 342.235809
[L_Toe2_03]
6 420.210846 -0.000715 0.000000 0.029090 85.375511 0.029090 420.210846
7 420.210846 -0.000715 0.000000 0.029090 85.375511 0.029090 420.210846
8 420.210846 -0.000715 0.000000 0.029090 85.375511 0.029090 420.210846
[L_Toe3_02]
6 329.270111 0.000954 0.000000 0.001178 -80.480331 0.001178 329.270111
7 329.270111 0.000954 0.000000 0.001178 -80.480331 0.001178 329.270111
8 329.270111 0.000954 0.000000 0.001178 -80.480331 0.001178 329.270111
[L_Toe3_03]
6 439.137451 -0.001907 0.000954 -179.995956 78.605698 -179.992447 439.137451
7 439.137451 -0.001907 0.000954 -179.995956 78.605698 -179.992447 439.137451
8 439.137451 -0.001907 0.000954 -179.995956 78.605698 -179.992447 439.137451
[planeLockWeightLeft]
6 1000.000366 0.000051 -0.000327 -0.011826 -0.004376 0.005620 1000.000366
7 1000.000366 0.000000 -0.000348 -0.011826 -0.004376 0.005620 1000.000366
8 1000.000366 -0.000051 -0.000370 -0.011826 -0.004376 0.005620 1000.000366
[R_Leg01]
6 761.455627 -0.001907 -0.000358 96.239838 -43.318863 40.958626 761.455688
7 761.455627 -0.001907 -0.000358 95.015556 -46.907070 42.509525 761.455688
8 761.455627 -0.001907 -0.000358 96.035782 -39.926910 43.717854 761.455688
[R_Leg02]
6 1441.140625 0.000000 -0.000238 -1.870516 -0.307451 -139.113937 1441.140625
7 1441.140625 0.000000 -0.000238 -2.381400 -0.456877 -159.054840 1441.140625
8 1441.140625 0.000000 -0.000238 -2.440643 -0.378722 -166.188248 1441.140625
[R_Leg03]
6 1686.963989 0.000954 0.001431 0.075060 -0.040755 130.524216 1686.963989
7 1686.963989 0.000954 0.001431 0.075946 -0.043262 130.919006 1686.963989
8 1686.963989 0.000954 0.001431 0.067998 -0.035072 128.805954 1686.963989
[R_Foot]
6 3041.560059 -30.531288 -11.204481 -4.664893 -22.939787 53.335228 3041.734131
7 3041.560059 -30.531288 -11.204481 -2.601285 -22.802736 66.633781 3041.734131
8 3041.560059 -30.531288 -11.204481 2.148864 -22.827019 78.921616 3041.734131
[planeAlignerRight]
6 -105.094612 -697.350464 -257.835236 -36.651737 -72.134026 -63.860050 750.880554
7 -115.699158 -705.390930 -230.082245 -36.798698 -74.234642 -62.611935 750.933105
8 -128.437881 -715.626221 -192.396317 -36.956722 -77.215004 -60.836201 752.086121
[R_Toe1_01]
6 -188.383347 -224.864899 21.052242 76.961533 -2.194036 -165.332260 294.101532
7 -188.383347 -224.864899 21.052242 78.729172 -1.376340 -163.436920 294.101532
8 -188.383347 -224.864899 21.052242 81.353500 -0.189215 -160.617371 294.101532
[R_Toe2_01]
6 200.637817 -220.002121 -148.787384 -94.262726 26.921944 -63.297592 332.857574
7 200.637817 -220.002121 -148.787384 -95.706650 25.399710 -63.298889 332.857574
8 200.637817 -220.002121 -148.787384 -97.197006 23.508982 -62.594120 332.857574
[R_Toe3_01]
6 188.606735 -220.092957 191.126343 -71.612305 -8.536522 -77.408325 347.192566
7 188.606735 -220.092957 191.126343 -71.435143 -9.122523 -76.137871 347.192566
8 188.606735 -220.092957 191.126343 -71.519615 -10.111860 -73.393440 347.192566
[planeLockWeightRight]
6 740.740112 0.000610 -0.000210 -0.011823 -0.004379 -0.000027 740.740112
7 259.259003 0.000000 -0.000134 -0.011823 -0.004379 -0.000027 259.259003
8 0.000000 0.000076 0.000000 -0.011823 -0.004379 -0.000027 0.000076
[R_Toe1_02]
6 413.762085 0.000477 -0.000119 0.001390 -25.163658 0.001390 413.762085
7 413.762085 0.000477 -0.000119 0.001388 -25.439983 0.001388 413.762085
8 413.762085 0.000477 -0.000119 0.001386 -25.716311 0.001386 413.762085
[R_Toe1_03]
6 464.317810 0.000000 0.001088 0.005836 66.798187 0.005836 464.317810
7 464.317810 0.000000 0.001088 0.005157 63.691769 0.005157 464.317810
8 464.317810 0.000000 0.001088 0.004393 59.010677 0.004393 464.317810
[R_Toe2_02]
6 342.234741 -0.000954 0.000238 0.001213 -60.655891 0.001213 342.234741
7 342.234741 -0.000954 0.000238 0.001203 -64.879074 0.001203 342.234741
8 342.234741 -0.000954 0.000238 0.001193 -69.102211 0.001193 342.234741
[R_Toe2_03]
6 420.210846 0.000715 -0.000268 -0.004168 61.878304 -0.000563 420.210846
7 420.210846 0.000715 -0.000268 -0.004901 68.788277 -0.001344 420.210846
8 420.210846 0.000715 -0.000268 0.001899 77.598778 0.003662 420.210846
[R_Toe3_02]
6 329.270355 -0.000477 -0.000954 -0.002390 -62.903557 -0.002390 329.270355
7 329.270355 -0.000477 -0.000954 -0.000586 -67.953705 -0.000586 329.270355
8 329.270355 -0.000477 -0.000954 0.001187 -73.003784 0.001187 329.270355
[R_Toe3_03]
6 439.137939 0.000238 0.001431 0.004709 61.135891 0.004709 439.137939
7 439.137939 0.000238 0.001431 0.006526 69.280479 0.006526 439.137939
8 439.137939 0.000238 0.001431 0.002503 79.805489 0.004266 439.137939
[Rear_Leg02]
6 1162.777710 -0.029802 0.005960 26.214470 -22.004770 -120.475143 1162.777710
7 1162.777710 -0.029802 0.005960 18.471176 -19.281126 -112.869446 1162.777710
8 1162.777710 -0.029802 0.005960 12.228509 -15.664130 -106.281433 1162.777710
[Rear_Leg03]
6 607.192505 -0.013351 -0.073195 0.010127 -0.005797 75.933853 607.192505
7 607.192505 -0.013351 -0.073195 0.010195 -0.005678 74.590973 607.192505
8 607.192505 -0.013351 -0.073195 0.010260 -0.005558 73.248070 607.192505
[Rear_Leg04]
6 995.874512 -0.020504 -0.011921 -0.042507 -0.018916 86.178879 995.874573
7 995.874512 -0.020504 -0.011921 -0.042104 -0.016859 82.315674 995.874573
8 995.874512 -0.020504 -0.011921 -0.041840 -0.014779 78.452438 995.874573
[Rear_Foot]
6 3096.176270 -0.067472 -0.041425 -76.430122 55.243286 86.657150 3096.176270
7 3096.176270 -0.067472 -0.041425 -68.989281 61.512054 92.523491 3096.176270
8 3096.176270 -0.067472 -0.041425 -60.455898 67.099876 99.910164 3096.176270
[planeAlignerCenter]
6 70.851112 -25.354776 -758.192566 12.240772 -0.001473 179.998184 761.917786
7 25.017698 -50.651855 -679.064636 12.240772 -0.001473 179.998184 681.410522
8 -20.814972 -76.787262 -606.493958 12.240772 -0.001473 179.998184 611.689819
[Rear_Toe1_01]
6 0.653352 83.966492 -371.173737 -2.326218 40.377300 85.990036 380.553192
7 0.653352 83.966492 -371.173737 -0.571652 33.809193 88.892738 380.553192
8 0.653352 83.966492 -371.173737 0.915637 27.799049 91.680931 380.553192
[Rear_Toe2_01]
6 178.200760 -294.826019 -362.060547 -5.910232 32.554649 -62.649925 499.765686
7 178.200760 -294.826019 -362.060547 -6.664216 28.750723 -65.707481 499.765686
8 178.200760 -294.826019 -362.060547 -7.168627 24.918247 -68.608238 499.765686
[Rear_Toe3_01]
6 -153.359680 -308.780914 -362.060852 4.265914 32.850552 -108.424599 499.952881
7 -153.359680 -308.780914 -362.060852 4.037529 28.142359 -110.303474 499.952881
8 -153.359680 -308.780914 -362.060852 3.986201 23.430258 -112.088661 499.952881
[planeLockWeightCenter]
6 1000.000122 0.000597 -0.000217 -0.011814 -0.004373 -0.000015 1000.000122
7 1000.000122 0.000584 -0.000205 -0.011814 -0.004373 -0.000015 1000.000122
8 1000.000122 0.000571 -0.000193 -0.011814 -0.004373 -0.000015 1000.000122
[Rear_Toe1_02]
6 379.707825 0.194073 0.000477 -0.000303 -32.515587 0.006968 379.707855
7 379.707825 0.194073 0.000477 0.001332 -33.609280 0.001332 379.707855
8 379.707825 0.194073 0.000477 -0.000653 -33.235096 -0.000653 379.707855
[Rear_Toe1_03]
6 500.129700 0.165701 0.000119 0.000483 56.980679 0.007777 500.129761
7 500.129700 0.165701 0.000119 0.007904 72.921791 0.007904 500.129761
8 500.129700 0.165701 0.000119 -0.010430 84.590790 -0.013930 500.129761
[Rear_Toe2_02]
6 340.494507 0.000238 -0.000954 0.001204 -64.194794 0.001204 340.494507
7 340.494507 0.000238 -0.000954 0.001199 -66.232368 0.001199 340.494507
8 340.494507 0.000238 -0.000954 0.001198 -66.658020 0.001198 340.494507
[Rear_Toe2_03]
6 433.103577 0.000000 0.000238 0.004801 61.693863 0.004801 433.103546
7 433.103577 0.000000 0.000238 0.005312 64.473602 0.005312 433.103546
8 433.103577 0.000000 0.000238 0.005436 65.065102 0.005436 433.103546
[Rear_Toe3_02]
6 340.494141 -0.000358 -0.000477 0.001192 -70.089943 0.001192 340.494171
7 340.494141 -0.000358 -0.000477 0.007882 -66.173302 -0.009057 340.494171
8 340.494141 -0.000358 -0.000477 -0.002404 -60.260929 -0.002404 340.494171
[Rear_Toe3_03]
6 433.103577 0.001431 -0.000238 0.006813 70.160484 0.006813 433.103546
7 433.103577 0.001431 -0.000238 -0.000800 64.391747 -0.004386 433.103546
8 433.103577 0.001431 -0.000238 -0.000165 56.446766 -0.003817 433.103546
[Back_Bone]
6 1312.175781 -701.934692 0.000954 0.904015 0.255072 -85.360664 1488.125488
7 1312.175781 -701.934692 0.000954 0.789553 0.306040 -85.311317 1488.125488
8 1312.175781 -701.934692 0.000954 0.523224 0.389008 -85.227188 1488.125488
[Head]
6 1406.159424 809.709290 0.001431 1.144706 -1.771359 7.220123 1622.625488
7 1406.159424 809.709290 0.001431 1.588094 -1.886069 6.988459 1622.625488
8 1406.159424 809.709290 0.001431 2.031989 -1.998986 6.755886 1622.625488
[Motor_Bone]
6 1158.364380 -417.834747 0.000477 -0.453235 0.087121 -105.903557 1231.419434
7 1158.364380 -417.834747 0.000477 -0.524805 0.089334 -105.901138 1231.419434
8 1158.364380 -417.834747 0.000477 -0.596375 0.091550 -105.898720 1231.419434
[Ping_Mechanism]
6 1217.684814 -429.895020 51.298409 0.000103 -0.000053 82.120995 1292.361206
7 1215.223022 -427.760590 55.656857 0.000103 -0.000053 82.120995 1289.513062
8 1217.556885 -429.479950 54.085739 0.000103 -0.000053 82.120995 1292.216309
[BN_LookIK]
6 193.241119 1380.371704 -0.002861 0.000000 89.965736 -31.038179 1393.832153
7 193.241119 1380.371704 -0.002861 0.000000 89.965736 -31.038179 1393.832153
8 193.241119 1380.371704 -0.002861 0.000000 89.965736 -31.038179 1393.832153
[bottomMouth]
6 -435.092926 615.759399 -0.000954 -0.000022 0.000016 73.527184 753.966492
7 -435.092926 615.759399 -0.000954 -0.000022 0.000016 73.527184 753.966492
8 -435.092926 615.759399 -0.000954 -0.000022 0.000016 73.527184 753.966492
[L_Mouth01]
6 554.440979 7.658243 838.222046 150.204178 23.759130 109.605339 1005.027161
7 554.440979 7.658243 838.222046 150.204178 23.759130 109.605339 1005.027161
8 554.440979 7.658243 838.222046 150.204178 23.759130 109.605339 1005.027161
[L_mouthFront]
6 551.629089 934.514771 339.150421 0.000081 2.804060 79.119301 1136.941284
7 551.629089 934.514771 339.150421 0.000081 2.804060 79.119301 1136.941284
8 551.629089 934.514771 339.150421 0.000081 2.804060 79.119301 1136.941284
[mouthGun]
6 55.332661 1627.420898 0.000000 0.000023 0.000009 -11.038128 1628.361328
7 55.332661 1627.420898 0.000000 0.000023 0.000009 -11.038128 1628.361328
8 55.332661 1627.420898 0.000000 0.000023 0.000009 -11.038128 1628.361328
[R_Mouth01]
6 554.442383 7.659197 -838.223938 29.795891 -23.759109 109.605331 1005.029541
7 554.442383 7.659197 -838.223938 29.795891 -23.759109 109.605331 1005.029541
8 554.442383 7.659197 -838.223938 29.795891 -23.759109 109.605331 1005.029541
[R_mouthFront]
6 551.629089 934.514282 -339.151367 0.000029 -2.803930 79.119133 1136.941162
7 551.629089 934.514282 -339.151367 0.000029 -2.803930 79.119133 1136.941162
8 551.629089 934.514282 -339.151367 0.000029 -2.803930 79.119133 1136.941162
[TopMouth]
6 461.269867 -56.106091 -0.008583 -0.000059 -0.000268 92.025169 464.669525
7 461.269867 -56.106091 -0.008583 -0.000059 -0.000268 92.025169 464.669525
8 461.269867 -56.106091 -0.008583 -0.000059 -0.000268 92.025169 464.669525
[weapon_bone]
6 -987.239868 1448.372803 0.001431 0.000000 89.965736 -31.038221 1752.833740
7 -987.239868 1448.372803 0.001431 0.000000 89.965736 -31.038221 1752.833740
8 -987.239868 1448.372803 0.001431 0.000000 89.965736 -31.038221 1752.833740
